<?xml version="1.0" standalone="no"?>
<!DOCTYPE svg PUBLIC "-//W3C//DTD SVG 20010904//EN"
 "http://www.w3.org/TR/2001/REC-SVG-20010904/DTD/svg10.dtd">
<svg version="1.0" xmlns="http://www.w3.org/2000/svg"
 width="97.000000pt" height="55.000000pt" viewBox="0 0 97.000000 55.000000"
 preserveAspectRatio="xMidYMid meet">
<metadata>
Created by potrace 1.15, written by Peter Selinger 2001-2017
</metadata>
<g transform="translate(0.000000,55.000000) scale(0.100000,-0.100000)"
fill="#000000" stroke="none">
<path d="M270 526 c-135 -12 -251 -25 -257 -29 -16 -10 -19 -432 -3 -442 6 -4
50 -9 98 -12 l88 -6 48 67 c26 36 50 66 54 66 4 0 29 -34 55 -74 27 -41 54
-77 61 -79 8 -3 65 -9 128 -12 93 -6 117 -5 124 6 5 8 11 127 14 264 l6 250 2
-243 c1 -153 -2 -251 -8 -263 -15 -26 -6 -25 130 16 66 20 121 42 128 52 9 12
12 40 10 81 -2 45 0 62 10 62 15 0 17 106 2 115 -5 3 -10 33 -10 66 0 69 9 63
-151 109 -119 33 -133 36 -123 18 6 -10 4 -10 -7 0 -18 16 -104 14 -399 -12z
m277 -175 c48 -71 10 -181 -62 -181 -24 0 -62 46 -70 86 -20 107 77 177 132
95z m-402 23 c8 -4 22 -19 30 -35 37 -70 -5 -174 -60 -152 -22 8 -45 56 -45
93 0 35 23 86 42 93 7 3 14 6 15 6 1 1 9 -2 18 -5z"/>
</g>
</svg>
